<svg id="manifacturing" xmlns="http://www.w3.org/2000/svg" width="38.493" height="38.493" viewBox="0 0 38.493 38.493">
  <path id="Path_406" data-name="Path 406" d="M0,0H38.493V38.493H0Z" fill="none"/>
  <circle id="Ellipse_120" data-name="Ellipse 120" cx="3.5" cy="3.5" r="3.5" transform="translate(27 17.493)" fill="none" stroke="#fff" stroke-linecap="round" stroke-linejoin="round" stroke-width="2"/>
  <ellipse id="Ellipse_121" data-name="Ellipse 121" cx="3.5" cy="3" rx="3.5" ry="3" transform="translate(3 24.493)" fill="none" stroke="#fff" stroke-linecap="round" stroke-linejoin="round" stroke-width="2"/>
  <circle id="Ellipse_122" data-name="Ellipse 122" cx="3" cy="3" r="3" transform="translate(18 24.493)" fill="none" stroke="#fff" stroke-linecap="round" stroke-linejoin="round" stroke-width="2"/>
  <line id="Line_114" data-name="Line 114" x1="15" transform="translate(6 30.493)" fill="none" stroke="#fff" stroke-linecap="round" stroke-linejoin="round" stroke-width="2"/>
  <line id="Line_115" data-name="Line 115" x2="15" transform="translate(6 24.493)" fill="none" stroke="#fff" stroke-linecap="round" stroke-linejoin="round" stroke-width="2"/>
  <path id="Path_407" data-name="Path 407" d="M8,15.019V7h3.208a4.812,4.812,0,0,1,4.812,4.812v8.019" transform="translate(4.831 4.227)" fill="none" stroke="#fff" stroke-linecap="round" stroke-linejoin="round" stroke-width="2"/>
  <path id="Path_408" data-name="Path 408" d="M5,16.812V13.6A1.6,1.6,0,0,1,6.6,12H17.831" transform="translate(3.019 7.246)" fill="none" stroke="#fff" stroke-linecap="round" stroke-linejoin="round" stroke-width="2"/>
  <path id="Path_409" data-name="Path 409" d="M22.623,15.227V4L13,15.227" transform="translate(7.85 2.415)" fill="none" stroke="#fff" stroke-linecap="round" stroke-linejoin="round" stroke-width="2"/>
</svg>
