<?xml version="1.0" standalone="no"?>
<!DOCTYPE svg PUBLIC "-//W3C//DTD SVG 20010904//EN"
 "http://www.w3.org/TR/2001/REC-SVG-20010904/DTD/svg10.dtd">
<svg version="1.0" xmlns="http://www.w3.org/2000/svg"
 width="1600.000000pt" height="1600.000000pt" viewBox="0 0 1600.000000 1600.000000"
 preserveAspectRatio="xMidYMid meet">
<metadata>
Created by potrace 1.14, written by Peter Selinger 2001-2017
</metadata>
<g transform="translate(0.000000,1600.000000) scale(0.100000,-0.100000)"
fill="#000000" stroke="none">
<path d="M3035 10600 c-155 -27 -370 -96 -485 -155 -16 -8 -32 -15 -35 -15 -3
0 -40 -18 -83 -42 -42 -23 -97 -52 -122 -66 -25 -13 -58 -32 -75 -43 -16 -10
-37 -22 -45 -26 -24 -11 -194 -124 -205 -137 -5 -6 -23 -20 -40 -30 -16 -10
-37 -25 -45 -33 -8 -7 -53 -44 -100 -81 -249 -197 -538 -475 -710 -685 -14
-17 -34 -40 -45 -51 -11 -12 -36 -41 -55 -66 -19 -25 -38 -49 -43 -55 -4 -5
-16 -20 -26 -33 -10 -12 -29 -38 -42 -57 -13 -19 -27 -35 -31 -35 -5 0 -8 -4
-8 -10 0 -9 -43 -71 -86 -123 -8 -9 -14 -21 -14 -26 0 -5 -3 -11 -8 -13 -11
-4 -191 -288 -215 -338 -4 -8 -17 -31 -29 -50 -29 -49 -189 -364 -214 -425
-12 -27 -29 -70 -39 -95 -9 -25 -21 -54 -26 -65 -29 -71 -120 -368 -135 -444
-1 -7 -7 -34 -13 -60 -6 -25 -13 -59 -16 -76 -3 -16 -7 -39 -9 -51 -2 -12 -7
-45 -11 -74 -4 -29 -9 -62 -12 -74 -3 -12 -6 -106 -8 -211 -3 -183 9 -343 34
-435 34 -122 53 -188 61 -205 21 -49 85 -181 92 -190 85 -110 146 -180 194
-221 180 -155 388 -247 654 -290 54 -9 298 -11 355 -4 138 18 161 22 175 25 8
2 29 6 45 9 17 2 50 8 75 12 25 5 50 9 55 9 6 1 24 4 40 8 17 4 46 9 65 12 19
3 42 8 50 10 8 2 31 7 50 10 19 3 55 11 80 17 25 6 54 12 65 13 11 2 31 6 45
9 14 3 61 14 105 25 115 27 351 88 490 126 67 19 132 36 145 39 14 3 70 16
125 30 153 37 298 64 460 86 137 19 162 21 365 24 391 7 660 -57 895 -212 87
-58 208 -177 263 -260 23 -35 42 -68 42 -73 0 -20 17 -6 54 46 105 147 284
254 470 283 57 8 370 8 431 -1 70 -10 130 -22 235 -46 167 -38 484 -176 626
-272 41 -27 74 -46 74 -42 -1 17 -131 156 -219 233 -35 30 -68 60 -75 65 -6 6
-38 32 -71 58 -33 26 -67 54 -75 60 -8 7 -31 23 -50 37 -19 13 -37 27 -40 30
-6 6 -64 46 -160 111 -36 24 -67 46 -70 49 -3 3 -16 11 -30 18 -30 14 -63 35
-70 43 -13 15 -245 120 -325 147 -77 26 -175 55 -182 54 -2 -1 -17 4 -35 9
-18 5 -49 12 -68 15 -19 3 -37 7 -40 9 -3 2 -37 7 -75 10 -39 4 -73 9 -78 12
-36 22 -580 21 -732 -1 -49 -8 -127 -17 -170 -20 -22 -2 -51 -6 -65 -9 -14 -4
-41 -9 -60 -12 -37 -5 -63 -10 -150 -26 -110 -21 -145 -28 -220 -44 -14 -4
-36 -8 -50 -11 -14 -3 -43 -10 -65 -16 -22 -5 -47 -12 -55 -13 -8 -2 -112 -28
-230 -59 -118 -30 -226 -57 -240 -60 -14 -3 -90 -21 -170 -41 -249 -62 -514
-126 -540 -131 -14 -3 -61 -13 -105 -24 -92 -21 -169 -38 -205 -44 -14 -3 -34
-7 -45 -9 -11 -3 -54 -10 -95 -16 -41 -6 -91 -14 -110 -17 -19 -4 -118 -8
-220 -9 -153 -2 -201 0 -275 17 -116 25 -108 23 -120 29 -5 4 -28 12 -50 19
-51 16 -184 82 -255 128 -170 108 -290 330 -317 587 -13 117 -4 459 13 486 3
5 7 23 9 41 3 18 16 78 30 133 14 55 28 111 31 125 14 63 114 358 149 435 13
30 21 56 17 59 -3 3 0 6 6 6 7 0 12 7 12 15 0 19 145 319 205 425 23 41 52 91
63 111 41 73 139 228 218 346 72 107 269 380 284 393 3 3 30 37 60 75 30 39
57 72 60 75 3 3 21 25 41 50 116 143 421 461 550 572 30 26 70 61 89 77 235
204 572 372 750 374 129 2 193 -51 192 -159 0 -69 -17 -89 -74 -93 -161 -9
-331 -216 -324 -395 3 -98 50 -149 139 -150 97 -1 187 58 274 181 37 53 121
218 128 252 2 12 7 31 10 41 35 110 23 281 -26 371 -18 35 -86 109 -99 109 -5
0 -10 4 -10 9 0 9 -92 57 -132 69 -49 14 -245 9 -343 -8z"/>
<path d="M10798 10605 c-2 -1 -28 -6 -58 -9 -106 -13 -305 -76 -480 -153 -64
-28 -265 -127 -270 -133 -3 -4 -36 -23 -74 -44 -124 -69 -362 -235 -481 -335
-17 -14 -51 -42 -75 -61 -156 -125 -511 -474 -660 -650 -12 -14 -42 -49 -68
-79 -26 -29 -56 -65 -67 -79 -11 -14 -30 -35 -42 -48 -13 -13 -23 -26 -23 -29
0 -3 -8 -13 -17 -23 -10 -11 -27 -32 -38 -47 -11 -16 -25 -33 -30 -39 -6 -6
-17 -21 -25 -32 -8 -12 -53 -75 -100 -139 -47 -64 -124 -176 -172 -249 -48
-72 -94 -140 -103 -151 -8 -10 -15 -25 -15 -32 0 -7 -4 -13 -9 -13 -5 0 -14
-13 -21 -30 -7 -16 -17 -30 -23 -30 -6 0 -8 -3 -4 -6 3 -4 -6 -25 -22 -48 -27
-41 -49 -79 -111 -191 -63 -114 -220 -435 -220 -450 0 -3 -8 -24 -19 -48 -35
-78 -117 -304 -126 -347 -2 -8 -11 -35 -19 -59 -9 -24 -18 -53 -21 -65 -2 -12
-12 -48 -20 -81 -9 -33 -18 -71 -20 -85 -2 -14 -7 -36 -10 -50 -20 -94 -27
-426 -12 -525 38 -244 156 -465 313 -589 31 -24 68 -50 83 -57 14 -8 28 -17
31 -21 9 -12 153 -57 211 -66 59 -9 192 -8 247 2 17 3 44 8 60 11 114 20 234
69 372 152 134 80 144 87 150 93 3 3 43 35 90 72 47 37 103 83 125 103 22 20
51 46 65 59 31 28 178 183 205 217 117 143 169 211 240 319 27 41 55 84 61 95
6 11 27 47 46 80 19 33 41 75 49 93 8 17 17 32 21 32 5 0 8 6 8 14 0 8 9 30
19 48 39 66 133 299 147 363 1 6 7 29 13 53 7 24 14 55 16 70 2 15 7 38 10 52
20 87 24 235 9 325 -17 97 -19 106 -48 163 -23 46 -108 132 -131 132 -5 0 -22
6 -36 14 -59 31 -237 7 -384 -52 -223 -89 -475 -315 -622 -558 -26 -43 -122
-237 -148 -299 -36 -85 -102 -297 -120 -385 -2 -8 -4 -15 -5 -15 -1 0 -3 -9
-4 -20 -2 -11 -7 -40 -11 -65 -5 -25 -9 -52 -10 -60 -2 -8 -6 -37 -10 -64 -4
-31 -3 -47 3 -45 6 2 56 48 112 102 147 142 401 324 512 366 32 12 35 16 43
71 4 25 9 48 11 52 3 4 7 16 9 25 32 168 186 446 319 578 82 81 139 113 213
120 133 13 179 -88 149 -325 -20 -160 -75 -324 -177 -535 -228 -469 -645 -910
-977 -1032 -65 -24 -92 -28 -172 -28 -86 1 -101 4 -161 33 -123 59 -186 137
-244 302 -28 78 -28 300 0 455 40 221 67 326 136 527 102 301 311 724 514
1038 12 19 45 71 73 115 28 44 54 85 59 90 4 6 28 41 53 80 25 38 50 77 57 85
6 8 68 89 138 180 69 91 131 172 138 180 6 8 30 38 52 65 22 28 42 52 45 55 3
3 23 28 44 55 22 28 47 57 55 66 9 9 36 40 61 70 94 111 149 169 310 329 183
182 196 194 325 299 122 99 114 92 170 131 27 19 54 39 60 43 5 4 35 23 65 42
30 19 64 41 75 50 10 8 23 15 28 15 5 0 21 8 35 19 32 22 261 141 271 139 3 0
8 1 11 2 41 15 167 20 229 7 49 -9 51 -11 34 -26 -10 -9 -34 -25 -53 -35 -39
-22 -43 -24 -190 -136 -57 -44 -138 -111 -179 -148 -65 -58 -104 -98 -221
-221 -56 -59 -230 -292 -230 -308 0 -3 -10 -20 -23 -37 -30 -40 -147 -279
-181 -371 -91 -244 -59 -446 87 -538 15 -10 27 -15 27 -11 0 4 6 1 14 -5 23
-19 126 -15 195 9 284 95 499 304 792 766 68 107 200 452 224 584 11 61 16 88
21 110 3 14 5 80 6 147 l0 122 45 15 c59 20 193 14 298 -14 44 -12 85 -22 90
-23 13 -3 70 -25 112 -44 18 -7 50 -20 70 -27 49 -18 136 -60 193 -92 115 -66
333 -199 355 -217 6 -4 33 -22 60 -39 28 -18 110 -72 183 -120 73 -48 137 -88
143 -88 5 0 9 -3 9 -8 0 -4 17 -16 38 -27 20 -11 43 -26 50 -32 7 -7 20 -13
28 -13 8 0 14 -3 14 -7 0 -5 21 -17 46 -27 l46 -19 57 64 c84 95 188 205 260
276 74 72 77 62 -34 130 -33 20 -62 39 -65 43 -3 3 -26 17 -51 30 -26 14 -118
66 -205 116 -88 51 -180 103 -206 118 -27 14 -69 38 -95 52 -176 98 -286 155
-333 173 -62 23 -184 62 -210 67 -14 2 -46 8 -71 13 -74 16 -157 23 -259 23
-178 1 -300 -21 -510 -92 -82 -27 -151 -50 -153 -50 -3 0 -20 14 -38 31 -74
69 -192 110 -336 114 -56 2 -103 2 -105 0z m416 -472 c-5 -98 -43 -295 -67
-358 -6 -16 -12 -32 -13 -35 -18 -96 -169 -407 -246 -505 -5 -5 -32 -41 -60
-80 -70 -93 -231 -257 -321 -327 -151 -116 -247 -151 -325 -119 -45 19 -75 81
-73 153 1 33 4 64 7 69 3 5 12 35 20 66 8 32 34 96 57 143 50 104 155 284 168
288 5 2 9 8 9 13 0 6 31 52 68 102 183 246 373 429 592 573 113 73 113 73 145
88 27 13 31 13 36 -2 4 -9 5 -41 3 -69z"/>
<path d="M15980 10603 c0 -8 -115 -126 -164 -168 -6 -5 -32 -28 -57 -50 -69
-61 -101 -87 -144 -120 -22 -16 -45 -34 -52 -41 -21 -21 -241 -164 -251 -164
-6 0 -12 -4 -14 -9 -3 -7 -204 -121 -215 -121 -2 0 -35 -16 -73 -34 -39 -19
-70 -32 -70 -29 0 3 -6 1 -12 -5 -16 -12 -241 -89 -283 -96 -16 -3 -48 -10
-70 -15 -124 -31 -412 -48 -492 -30 -30 6 -36 3 -86 -55 -30 -33 -79 -90 -108
-126 -30 -36 -58 -70 -64 -76 -5 -6 -21 -26 -35 -44 -14 -18 -30 -38 -35 -44
-32 -33 -66 -86 -61 -94 5 -8 49 -19 116 -28 21 -3 163 -16 175 -16 32 -1 238
13 244 16 3 2 28 7 56 11 27 3 84 15 125 27 41 11 82 21 90 23 133 30 546 232
618 302 7 7 17 13 22 13 5 0 15 6 22 13 7 7 29 24 48 37 19 13 37 27 40 30 3
3 28 23 55 45 118 93 306 283 397 401 13 16 26 31 30 32 5 2 8 10 8 18 0 8 4
14 8 14 8 0 134 185 174 255 44 76 69 127 64 133 -3 3 -6 1 -6 -5z"/>
<path d="M14574 10546 c-61 -18 -159 -58 -200 -81 -72 -40 -179 -109 -182
-117 -2 -4 -9 -8 -16 -8 -7 0 -21 -8 -32 -17 -10 -10 -53 -45 -94 -77 -41 -33
-77 -63 -80 -66 -3 -3 -21 -18 -40 -34 -143 -117 -510 -475 -651 -636 -41 -46
-78 -90 -84 -96 -5 -6 -28 -32 -50 -59 -22 -26 -45 -53 -50 -59 -6 -6 -30 -36
-55 -66 -25 -30 -47 -57 -50 -60 -10 -9 -265 -353 -301 -405 -19 -27 -37 -52
-40 -55 -3 -3 -58 -84 -121 -180 -147 -222 -292 -459 -382 -625 -6 -11 -13
-22 -16 -25 -3 -3 -13 -21 -24 -40 -10 -19 -32 -60 -49 -90 -67 -121 -132
-245 -237 -457 -109 -218 -112 -221 -153 -238 -23 -9 -50 -19 -59 -21 -10 -2
-28 -7 -40 -10 -35 -9 -128 -17 -128 -10 0 3 14 36 31 73 57 123 135 341 157
436 1 4 2 8 3 10 4 10 10 79 13 171 4 91 2 119 -15 169 -50 150 -142 215 -301
215 -93 0 -167 -19 -274 -69 -250 -119 -501 -326 -709 -584 -22 -28 -42 -52
-46 -55 -11 -10 -177 -237 -205 -280 -16 -25 -31 -47 -34 -50 -3 -3 -24 -34
-46 -70 -127 -202 -250 -465 -311 -665 -85 -280 -87 -532 -6 -663 25 -40 85
-102 100 -102 7 0 13 -4 13 -9 0 -12 75 -32 135 -35 77 -4 169 19 271 69 80
39 186 103 231 140 7 6 27 21 44 35 147 116 305 278 445 460 54 71 143 194
159 221 6 10 51 82 101 161 50 78 94 150 98 158 38 79 60 100 112 105 68 5
142 15 187 25 20 4 37 5 37 1 0 -4 -21 -67 -46 -141 -25 -74 -47 -139 -48
-145 -2 -5 -6 -17 -9 -25 -6 -16 -33 -104 -47 -155 -5 -16 -17 -61 -28 -100
-55 -189 -78 -392 -58 -503 35 -190 171 -317 326 -305 42 3 85 10 85 13 0 1 7
3 15 5 38 7 139 60 205 107 72 51 249 220 318 303 14 17 36 43 49 58 l23 28 0
-138 c1 -120 4 -146 23 -195 70 -176 250 -231 449 -137 37 17 82 42 100 55 17
13 34 24 38 24 3 0 11 4 18 10 7 5 44 35 82 66 39 30 105 89 147 130 42 41 79
74 81 74 3 0 1 -17 -3 -37 -8 -35 -6 -156 3 -193 26 -107 97 -166 206 -174 98
-7 192 31 383 152 162 102 360 298 566 561 46 58 89 113 95 121 7 8 28 38 47
65 19 28 37 52 40 55 10 10 55 75 123 180 38 58 77 116 86 130 40 58 38 60
-52 60 l-83 0 -109 -161 c-59 -88 -113 -166 -119 -172 -7 -7 -23 -28 -36 -47
-13 -19 -27 -37 -30 -40 -3 -3 -21 -25 -39 -49 -64 -81 -113 -133 -236 -246
-16 -15 -63 -49 -103 -76 -55 -36 -79 -46 -100 -43 -15 3 -30 9 -35 13 -41 41
34 211 255 577 73 120 160 272 255 442 15 26 34 61 44 77 10 17 32 57 50 90
18 33 42 76 54 95 12 19 25 42 28 50 4 8 23 42 42 75 19 33 39 70 45 82 5 11
14 24 19 28 6 3 11 15 11 25 0 10 4 20 8 22 7 3 22 28 92 153 50 90 96 172
105 186 6 10 22 40 37 68 l27 51 -259 0 c-158 0 -260 -4 -260 -9 0 -6 -15 -34
-33 -64 l-32 -54 -55 66 c-69 83 -125 113 -218 117 -68 3 -186 -19 -209 -38
-7 -6 -13 -7 -13 -3 0 16 -197 -111 -315 -204 -68 -53 -355 -333 -355 -345 0
-4 -10 -17 -23 -29 -22 -21 -195 -239 -227 -287 -20 -29 -87 -122 -98 -135
-20 -25 -284 -430 -332 -510 -13 -22 -28 -41 -32 -43 -4 -2 -8 -10 -8 -18 0
-8 -4 -14 -9 -14 -5 0 -14 -13 -21 -30 -7 -16 -16 -30 -21 -30 -5 0 -9 -4 -9
-10 0 -28 -218 -294 -287 -350 -24 -19 -50 -41 -59 -49 -9 -8 -37 -16 -62 -19
-60 -5 -94 20 -112 82 -18 67 -10 146 31 311 11 44 22 87 24 95 15 65 101 315
132 387 9 21 17 40 18 43 4 13 22 53 60 136 l43 91 118 86 c66 47 130 95 144
106 14 11 54 43 90 71 84 67 140 112 154 125 6 6 38 33 71 60 33 28 67 57 76
65 8 8 67 62 129 120 143 133 307 297 435 435 55 60 117 126 137 148 21 22 55
60 75 85 21 25 45 52 53 61 9 9 43 48 75 86 33 39 62 72 65 75 40 38 317 400
374 488 l28 44 -59 -7 c-32 -4 -70 -6 -84 -6 -18 1 -34 -8 -48 -26 -28 -37
-140 -182 -171 -222 -14 -18 -34 -42 -45 -55 -11 -12 -38 -45 -60 -71 -68 -83
-129 -153 -275 -315 -234 -259 -647 -665 -830 -816 -19 -16 -41 -34 -48 -41
-48 -46 -242 -180 -242 -168 0 11 199 398 217 420 4 6 23 40 42 75 19 36 49
89 68 118 18 28 30 52 27 52 -2 0 0 6 6 13 9 10 186 300 231 377 8 14 16 27
19 30 13 13 60 91 60 100 0 5 5 10 10 10 6 0 10 4 10 8 0 8 90 145 231 352 65
95 289 400 345 469 7 9 29 36 49 61 145 179 173 209 377 411 254 253 359 342
464 393 96 47 126 31 118 -60 -2 -32 -12 -83 -21 -114 -14 -50 -100 -236 -121
-264 -5 -6 -12 -21 -15 -34 -5 -21 -3 -23 25 -17 17 4 36 8 42 10 102 21 101
21 151 123 67 136 98 248 98 352 1 133 -34 196 -122 220 -44 12 -141 10 -187
-4z m-3190 -2689 c9 9 55 -36 74 -72 34 -65 32 -200 -5 -325 -9 -30 -17 -61
-19 -69 -5 -28 -49 -130 -101 -239 -62 -126 -52 -121 -150 -75 -235 109 -310
405 -153 596 26 31 81 87 86 87 3 0 16 11 30 24 55 50 178 93 215 75 9 -5 19
-5 23 -2z m2942 -64 c25 -32 11 -76 -68 -207 -43 -71 -78 -130 -78 -132 0 -1
-20 -37 -45 -78 -25 -42 -45 -81 -45 -86 0 -5 -6 -15 -12 -22 -7 -7 -23 -31
-35 -53 -11 -22 -30 -56 -40 -75 -11 -19 -37 -66 -58 -105 -172 -314 -493
-796 -600 -900 -70 -69 -98 -91 -142 -113 -46 -23 -109 -20 -137 8 -37 36 -24
171 31 320 15 41 26 78 25 83 -1 4 2 7 7 7 7 0 12 10 20 45 1 3 15 31 31 62
17 32 30 63 30 69 0 7 3 14 8 16 4 2 41 59 81 128 129 216 331 519 353 528 4
2 8 10 8 17 0 7 3 15 8 17 4 2 41 44 82 93 119 144 331 348 401 385 58 31 148
28 175 -7z m-3546 -544 c0 -20 72 -113 140 -179 85 -84 110 -102 196 -147 l72
-37 -27 -56 c-14 -30 -32 -61 -38 -68 -7 -7 -13 -17 -13 -22 0 -15 -120 -201
-194 -300 -88 -118 -111 -145 -211 -246 -124 -124 -226 -186 -310 -186 -152 0
-191 163 -103 427 28 82 104 258 128 295 5 8 18 31 28 50 85 164 295 479 320
480 6 0 12 -5 12 -11z"/>
<path d="M3340 9357 c-3 -3 -19 -7 -37 -10 -42 -7 -135 -37 -147 -48 -6 -5
-16 -9 -24 -9 -13 0 -202 -102 -227 -122 -5 -4 -46 -35 -90 -68 -119 -89 -158
-123 -285 -250 -104 -104 -140 -144 -237 -260 -64 -76 -213 -282 -248 -342 -5
-10 -31 -52 -56 -95 -65 -111 -153 -293 -189 -393 -6 -19 -16 -44 -21 -55 -7
-17 -38 -120 -45 -150 -38 -166 -45 -216 -44 -330 1 -107 4 -141 14 -165 3 -8
7 -24 9 -35 1 -11 15 -45 29 -75 73 -156 235 -218 425 -164 65 18 243 102 243
115 0 4 9 10 19 14 23 7 174 122 179 136 2 5 8 9 14 9 21 0 300 291 416 435
89 111 229 318 312 465 30 52 58 97 62 98 5 2 8 8 8 13 0 6 15 34 34 62 l33
53 94 22 c126 30 149 34 149 28 0 -3 -10 -22 -21 -43 -139 -245 -259 -539
-292 -713 -21 -111 -10 -275 27 -400 48 -163 186 -288 342 -309 253 -35 547
92 843 364 95 87 114 105 214 204 105 102 104 102 77 6 -21 -73 -44 -221 -41
-265 5 -114 40 -203 95 -245 92 -70 215 -87 331 -46 33 12 66 23 73 24 7 2 18
9 24 15 7 7 16 12 20 12 12 0 113 67 175 117 32 25 93 81 135 123 l77 78 -3
-91 c-4 -109 10 -166 55 -221 61 -73 164 -95 280 -59 30 9 56 17 59 18 16 5
46 19 50 24 3 3 25 17 50 30 128 69 395 308 570 511 101 117 240 290 280 350
8 12 36 50 61 84 42 57 145 205 163 234 5 9 -12 12 -78 12 l-85 0 -35 -47
c-20 -27 -39 -52 -44 -58 -4 -5 -48 -62 -97 -125 -127 -163 -242 -290 -375
-414 -14 -13 -48 -40 -76 -60 -104 -74 -168 -81 -180 -21 -8 47 7 88 88 228
39 67 80 138 91 157 11 19 50 87 87 150 37 63 70 122 74 130 3 8 15 29 26 45
11 17 23 36 26 44 4 7 51 89 104 181 53 92 100 174 104 181 4 8 17 30 29 51
12 20 38 65 58 100 91 160 188 326 208 358 8 14 16 27 16 30 1 5 129 225 161
277 8 12 14 25 14 28 0 3 -112 5 -250 5 l-249 0 -32 -47 -32 -47 -16 23 c-30
46 -70 81 -122 108 -71 36 -181 38 -280 5 -99 -34 -285 -146 -376 -227 -6 -5
-36 -32 -68 -59 -110 -96 -273 -269 -433 -459 -41 -50 -228 -301 -273 -367
-24 -36 -47 -66 -51 -68 -5 -2 -8 -8 -8 -13 0 -19 -222 -305 -348 -449 -80
-91 -251 -269 -323 -335 -180 -166 -382 -246 -495 -195 -89 39 -130 134 -128
290 2 96 26 179 107 370 5 14 10 28 9 33 -1 4 3 7 8 7 6 0 10 6 10 13 0 8 14
42 32 78 17 35 32 66 33 69 3 11 40 85 46 90 3 3 13 21 22 40 37 76 165 282
179 288 4 2 8 8 8 13 0 6 5 15 10 22 6 7 29 37 51 67 95 129 120 158 249 290
194 198 309 273 422 274 53 0 61 -3 88 -33 17 -18 31 -40 31 -49 1 -9 2 -24 3
-32 3 -29 -16 -70 -32 -71 -111 -4 -188 -48 -265 -152 -107 -142 -110 -294 -7
-344 42 -20 80 -19 135 6 53 23 185 153 185 181 0 6 5 10 10 10 6 0 10 4 10
10 0 5 13 32 30 60 16 27 27 50 24 50 -4 0 -2 6 3 13 16 19 50 126 59 182 15
96 6 165 -30 239 -28 58 -75 109 -120 134 -90 49 -280 62 -381 27 -212 -73
-395 -207 -709 -520 -177 -177 -325 -296 -456 -368 -41 -23 -77 -42 -80 -43
-3 0 -25 -6 -49 -13 -23 -7 -45 -10 -48 -7 -3 3 15 61 41 128 46 121 83 243
92 303 2 17 6 45 9 63 15 100 1 241 -31 304 -56 112 -140 164 -274 174 -47 3
-87 4 -90 1z m150 -259 c11 -7 31 -35 44 -63 32 -67 32 -179 2 -300 -1 -5 -8
-36 -16 -67 -7 -32 -17 -58 -22 -58 -4 0 -8 -6 -8 -14 0 -11 -23 -66 -76 -183
-8 -18 -19 -35 -25 -39 -5 -3 -42 2 -82 12 -138 33 -247 129 -282 248 -15 49
-2 144 27 206 58 122 191 245 293 271 39 10 120 2 145 -13z m3306 -12 c35 -24
38 -51 12 -98 -13 -24 -25 -45 -28 -48 -3 -3 -13 -21 -24 -40 -33 -63 -78
-143 -151 -270 -40 -69 -83 -143 -95 -165 -126 -226 -411 -701 -502 -836 -126
-188 -313 -359 -400 -366 -34 -3 -45 2 -72 29 -26 26 -32 40 -30 66 2 28 12
90 19 112 1 3 7 25 14 49 7 24 16 51 21 60 4 9 21 48 36 86 55 137 250 493
276 503 4 2 8 8 8 13 0 12 140 213 152 217 4 2 8 10 8 17 0 7 3 15 8 17 6 3
113 140 179 231 12 17 26 33 31 36 4 3 21 24 37 46 17 22 37 47 45 55 9 8 25
28 37 43 124 162 279 272 367 261 15 -2 39 -10 52 -18z m-3931 -572 c22 -41
121 -145 177 -187 47 -34 161 -91 216 -108 32 -9 41 -16 37 -28 -11 -28 -119
-206 -127 -209 -4 -2 -8 -8 -8 -13 0 -10 -97 -166 -133 -214 -171 -228 -353
-404 -467 -453 -53 -22 -125 -25 -162 -6 -49 25 -80 99 -80 189 0 115 58 285
185 539 48 96 193 345 207 356 4 3 9 10 11 15 10 26 105 155 114 155 6 0 19
-16 30 -36z"/>
<path d="M7760 9134 c-52 -85 -101 -161 -107 -169 -7 -7 -13 -16 -13 -19 0 -4
-11 -24 -25 -46 -14 -22 -25 -42 -25 -45 0 -3 107 -5 238 -5 l238 0 35 60 c18
33 37 60 42 60 4 0 7 5 7 11 0 6 41 76 90 155 50 79 90 146 90 149 0 3 -107 5
-237 5 l-238 0 -95 -156z"/>
</g>
</svg>
